Coordinates
version=1
nRows=8
nColumns=63
inDegrees=yes

Units are S.I. units (second, meters, Newtons, ...)
If the header above contains a line with 'inDegrees', this indicates whether rotational values are in degrees (yes) or radians (no).

endheader
time	pelvis_tilt	pelvis_list	pelvis_rotation	pelvis_tx	pelvis_ty	pelvis_tz	hip_flexion_r	hip_adduction_r	hip_rotation_r	knee_angle_r	knee_angle_r_beta	ankle_angle_r	subtalar_angle_r	mtp_angle_r	hip_flexion_l	hip_adduction_l	hip_rotation_l	knee_angle_l	knee_angle_l_beta	ankle_angle_l	subtalar_angle_l	mtp_angle_l	L5_S1_Flex_Ext	L5_S1_Lat_Bending	L5_S1_axial_rotation	L4_L5_Flex_Ext	L4_L5_Lat_Bending	L4_L5_axial_rotation	L3_L4_Flex_Ext	L3_L4_Lat_Bending	L3_L4_axial_rotation	L2_L3_Flex_Ext	L2_L3_Lat_Bending	L2_L3_axial_rotation	L1_L2_Flex_Ext	L1_L2_Lat_Bending	L1_L2_axial_rotation	L1_T12_Flex_Ext	L1_T12_Lat_Bending	L1_T12_axial_rotation	Abs_r3	Abs_r2	Abs_r1	Abs_t1	Abs_t2	neck_flexion	neck_bending	neck_rotation	arm_flex_r	arm_add_r	arm_rot_r	elbow_flex_r	pro_sup_r	wrist_flex_r	wrist_dev_r	arm_flex_l	arm_add_l	arm_rot_l	elbow_flex_l	pro_sup_l	wrist_flex_l	wrist_dev_l
      4.57627119	     10.75199456	     -7.15663606	     97.78900550	      0.10066652	      1.03464017	      0.28215865	     -5.68949844	      6.22149092	    -19.42301780	      2.85313509	      0.04979660	     27.56268225	     15.56180447	      0.00000000	     -0.64437799	     -6.07018728	     -2.74069817	     14.63162788	      0.25537008	     35.96216400	     -5.04095150	      0.00000000	     -0.54224092	      0.99115592	      3.22855546	     -1.00699561	      1.31823737	      3.43034018	     -0.89084760	      2.40989650	      3.43034018	     -0.61972714	      2.40989650	      2.82498603	     -0.50352492	      2.02116515	      2.62320131	     -0.30983646	      1.53530052	      2.42141660	     -3.87317265	     11.21215398	     17.95625690	      0.00000000	      0.00000000	     -3.94379776	    -17.10685722	     23.39771649	      2.98564992	    -18.10184573	     51.98080885	     25.10433305	     87.38560076	    -10.91374342	      5.65689183	    -12.15273992	    -20.75059534	     45.67330451	    116.56934682	     88.92098571	      8.04489110	      5.32004929
      4.59322034	     10.77119356	     -6.91536665	     98.02982737	      0.09803332	      1.03486962	      0.28148301	     -6.12857313	      6.22082815	    -19.33450500	      2.50995305	      0.04380694	     27.41086569	     15.38711032	      0.00000000	     -0.86494891	     -5.99138616	     -2.55031982	     14.57336656	      0.25435323	     36.27103204	     -4.75219309	      0.00000000	     -0.52461013	      1.01078780	      3.03117834	     -0.97425348	      1.34434778	      3.22062699	     -0.86188199	      2.45762946	      3.22062699	     -0.59957692	      2.45762946	      2.65228105	     -0.48715297	      2.06119849	      2.46283240	     -0.29976223	      1.56571031	      2.27338375	     -3.74723771	     11.43423378	     16.85850457	      0.00000000	      0.00000000	     -3.27687769	    -18.39243902	     21.58276761	      4.87551905	    -18.88654367	     51.06973373	     25.10251896	     87.05890074	    -11.70620860	      5.99599176	    -12.68518086	    -20.33028879	     44.95535535	    116.54389407	     88.83510365	      7.17166859	      5.38665469
      4.61016949	     10.96587343	     -6.63233471	     98.88335060	      0.09507923	      1.03517438	      0.28174657	     -6.54697162	      6.51937887	    -19.55777497	      2.11438171	      0.03690292	     27.07163510	     14.72954685	      0.00000000	     -0.79488934	     -6.21154617	     -2.14624420	     14.85465563	      0.25926265	     36.50776969	     -4.01223646	      0.00000000	     -0.51105536	      1.04381936	      2.79661112	     -0.94908090	      1.38827975	      2.97139931	     -0.83961284	      2.53794239	      2.97139931	     -0.58408517	      2.53794239	      2.44703473	     -0.47456600	      2.12855644	      2.27224653	     -0.29201703	      1.61687619	      2.09745834	     -3.65041730	     11.80789335	     15.55391205	      0.00000000	      0.00000000	     -2.62640522	    -19.33346717	     19.29733398	      6.21757003	    -19.77687968	     45.93741866	     26.01690258	     86.14590354	    -13.08691595	      6.19270418	    -12.55534052	    -20.12347261	     45.18455504	    116.51367291	     88.72438030	      5.34751938	      5.40205534
      4.62711864	     10.94954844	     -6.43018615	     99.04690962	      0.09318412	      1.03551310	      0.28183337	     -6.87180232	      6.50212976	    -19.36841165	      1.87933136	      0.03280052	     26.86097280	     14.31385401	      0.00000000	     -0.99896717	     -6.19392263	     -2.70276245	     14.79059225	      0.25814453	     36.39249957	     -3.58365787	      0.00000000	     -0.49912067	      1.04529002	      2.72295020	     -0.92691699	      1.39023573	      2.89313458	     -0.82000534	      2.54151816	      2.89313458	     -0.57044501	      2.54151816	      2.38258142	     -0.46348345	      2.13155542	      2.21239703	     -0.28519755	      1.61915425	      2.04221265	     -3.56516901	     11.82452980	     15.14423210	      0.00000000	      0.00000000	     -2.06769083	    -20.33379504	     16.76508470	      6.56863034	    -20.21322940	     34.86543633	     27.87703316	     86.09930485	    -13.67085744	      6.14014494	    -12.20111781	    -20.13132377	     45.85958642	    116.39501007	     88.67417878	      3.17559014	      4.55959759
      4.64406780	     10.82638103	     -6.33716973	     99.41336148	      0.09186529	      1.03577824	      0.28196738	     -7.10474911	      6.44928915	    -19.43533298	      1.61745332	      0.02822989	     26.69967235	     13.86062168	      0.00000000	     -1.02114253	     -6.12594887	     -3.10525743	     14.89828469	      0.26002412	     35.69528050	     -3.39141821	      0.00000000	     -0.46637847	      1.01938347	      2.60113747	     -0.86611147	      1.35578001	      2.76370856	     -0.76621320	      2.47852896	      2.76370856	     -0.53302396	      2.47852896	      2.27599529	     -0.43307905	      2.07872676	      2.11342419	     -0.26648866	      1.57902499	      1.95085310	     -3.33129481	     11.53146964	     14.46674627	      0.00000000	      0.00000000	     -1.77126872	    -20.79983367	     14.37711806	      7.55584179	    -20.32825527	     25.96478019	     29.37085548	     82.65329961	    -15.04563156	      4.27118793	    -11.73460607	    -20.33181391	     46.37639161	    116.30655207	     88.62058412	      1.96692532	      3.98001459
      4.66101695	     10.51446411	     -6.31881752	     99.49275894	      0.09145276	      1.03607823	      0.28157501	     -7.31630629	      6.19434073	    -19.24067494	      1.37758085	      0.02404332	     26.62909716	     13.41048565	      0.00000000	     -1.19393573	     -5.89266517	     -3.98785517	     14.80156416	      0.25833603	     34.73782970	     -3.04449810	      0.00000000	     -0.42510116	      0.96728270	      2.52745462	     -0.78945536	      1.28648599	      2.68542053	     -0.69839869	      2.35185116	      2.68542053	     -0.48584811	      2.35185116	      2.21152279	     -0.39474893	      1.97248289	      2.05355688	     -0.24290280	      1.49832091	      1.89559096	     -3.03645504	     10.94209539	     14.05694435	      0.00000000	      0.00000000	     -1.73840984	    -21.02084929	     12.48842447	      8.58017015	    -19.91918653	     16.03222689	     31.28162964	     80.85448818	    -15.64271232	      2.95390104	    -11.23502666	    -20.68221333	     46.85196418	    116.32095287	     88.53134653	      0.44114474	      3.38561463
      4.67796610	     10.05764730	     -6.41165582	     99.74137336	      0.09133930	      1.03627211	      0.28098374	     -7.43942687	      5.82453474	    -19.30774852	      1.14566416	      0.01999561	     26.64376578	     13.05643619	      0.00000000	     -1.21886122	     -5.51118886	     -4.50908104	     14.78030057	      0.25796491	     33.62440929	     -2.84484181	      0.00000000	     -0.36073234	      0.88829553	      2.38149331	     -0.66991602	      1.18143305	      2.53033664	     -0.59264716	      2.15980175	      2.53033664	     -0.41228099	      2.15980175	      2.08380664	     -0.33497605	      1.81141224	      1.93496331	     -0.20612246	      1.37596977	      1.78611998	     -2.57667501	     10.04857668	     13.24515133	      0.00000000	      0.00000000	     -2.06094830	    -20.74742405	     10.93816577	     10.34411457	    -19.62532845	      9.73319915	     33.04833416	     77.33338809	    -16.58368716	      1.76055274	    -10.96024213	    -20.93722109	     46.49165917	    116.49213222	     88.32542800	      0.59400171	      3.62770135
      4.69491525	      9.51883021	     -6.50238084	     99.76967194	      0.09168794	      1.03656769	      0.28000456	     -7.58369902	      5.34932021	    -19.24007614	      0.96229852	      0.01679528	     26.68798980	     12.86165410	      0.00000000	     -1.34567337	     -5.02531327	     -5.05298355	     14.69384819	      0.25645603	     32.72904034	     -2.69436188	      0.00000000	     -0.29341596	      0.79895948	      2.20571466	     -0.54490277	      1.06261612	      2.34357183	     -0.48205308	      1.94259009	      2.34357183	     -0.33534510	      1.94259009	      1.93000033	     -0.27246606	      1.62923818	      1.79214316	     -0.16765788	      1.23758824	      1.65428600	     -2.09584084	      9.03798949	     12.26752325	      0.00000000	      0.00000000	     -2.66363844	    -20.29352572	      9.85256669	     12.64240644	    -19.25919132	      5.55183506	     34.87680072	     75.47920674	    -18.13808816	      1.82306461	    -11.15032333	    -21.06324547	     45.55130887	    116.79814674	     88.01228972	      0.73077727	      3.84851872
